<svg width="20" height="20" viewBox="0 0 20 20" fill="none" xmlns="http://www.w3.org/2000/svg">
<path d="M16.6598 6.66382H3.33201C2.87196 6.66382 2.49902 7.03676 2.49902 7.4968V9.16278C2.49902 9.62282 2.87196 9.99576 3.33201 9.99576H16.6598C17.1198 9.99576 17.4928 9.62282 17.4928 9.16278V7.4968C17.4928 7.03676 17.1198 6.66382 16.6598 6.66382Z" stroke="#00A63E" stroke-width="1.66597" stroke-linecap="round" stroke-linejoin="round"/>
<path d="M9.99609 6.66382V17.4926" stroke="#00A63E" stroke-width="1.66597" stroke-linecap="round" stroke-linejoin="round"/>
<path d="M15.8268 9.99585V15.8268C15.8268 16.2686 15.6513 16.6923 15.3389 17.0048C15.0265 17.3172 14.6027 17.4927 14.1609 17.4927H5.83101C5.38917 17.4927 4.96542 17.3172 4.65299 17.0048C4.34056 16.6923 4.16504 16.2686 4.16504 15.8268V9.99585" stroke="#00A63E" stroke-width="1.66597" stroke-linecap="round" stroke-linejoin="round"/>
<path d="M6.2475 6.66383C5.6952 6.66383 5.16552 6.44443 4.77498 6.05389C4.38444 5.66335 4.16504 5.13367 4.16504 4.58137C4.16504 4.02906 4.38444 3.49938 4.77498 3.10884C5.16552 2.7183 5.6952 2.4989 6.2475 2.4989C7.05108 2.4849 7.83853 2.87479 8.50718 3.61773C9.17582 4.36068 9.69463 5.42218 9.99594 6.66383C10.2973 5.42218 10.8161 4.36068 11.4847 3.61773C12.1534 2.87479 12.9408 2.4849 13.7444 2.4989C14.2967 2.4989 14.8264 2.7183 15.2169 3.10884C15.6074 3.49938 15.8268 4.02906 15.8268 4.58137C15.8268 5.13367 15.6074 5.66335 15.2169 6.05389C14.8264 6.44443 14.2967 6.66383 13.7444 6.66383" stroke="#00A63E" stroke-width="1.66597" stroke-linecap="round" stroke-linejoin="round"/>
</svg>
